<svg width="12" height="20" viewBox="0 0 12 20" fill="none" xmlns="http://www.w3.org/2000/svg">
<path d="M11.0603 0.45395C11.3415 0.735242 11.4995 1.1167 11.4995 1.51445C11.4995 1.9122 11.3415 2.29366 11.0603 2.57495L3.63533 9.99995L11.0603 17.4249C11.3336 17.7079 11.4848 18.0868 11.4813 18.4801C11.4779 18.8733 11.3202 19.2496 11.0421 19.5277C10.7639 19.8058 10.3877 19.9635 9.99443 19.967C9.60113 19.9704 9.22223 19.8192 8.93933 19.5459L0.453828 11.0604C0.172621 10.7792 0.0146484 10.3977 0.0146484 9.99995C0.0146484 9.6022 0.172621 9.22074 0.453828 8.93945L8.93933 0.45395C9.22062 0.172744 9.60208 0.0147705 9.99983 0.0147705C10.3976 0.0147705 10.779 0.172744 11.0603 0.45395Z" fill="black"/>
</svg>
